<?xml version="1.0" encoding="UTF-8" standalone="no"?>
<!-- Created with Inkscape (http://www.inkscape.org/) -->

<svg
   xmlns:dc="http://purl.org/dc/elements/1.1/"
   xmlns:cc="http://creativecommons.org/ns#"
   xmlns:rdf="http://www.w3.org/1999/02/22-rdf-syntax-ns#"
   xmlns:svg="http://www.w3.org/2000/svg"
   xmlns="http://www.w3.org/2000/svg"
   xmlns:xlink="http://www.w3.org/1999/xlink"
   version="1.1"
   width="744.09448"
   height="1052.3622"
   id="svg2">
  <defs
     id="defs3">
    <linearGradient
       id="linearGradient4323">
      <stop
         id="stop4325"
         style="stop-color:#ffffff;stop-opacity:0"
         offset="0" />
      <stop
         id="stop4331"
         style="stop-color:#ffffff;stop-opacity:0.50980389"
         offset="0.2730228" />
      <stop
         id="stop4327"
         style="stop-color:#ffffff;stop-opacity:1"
         offset="1" />
    </linearGradient>
    <linearGradient
       id="linearGradient4266">
      <stop
         id="stop4268"
         style="stop-color:#000000;stop-opacity:1"
         offset="0" />
      <stop
         id="stop4270"
         style="stop-color:#ffffff;stop-opacity:1"
         offset="0.13092887" />
      <stop
         id="stop4272"
         style="stop-color:#ffffff;stop-opacity:1"
         offset="1" />
    </linearGradient>
    <linearGradient
       id="linearGradient4252">
      <stop
         id="stop4254"
         style="stop-color:#000000;stop-opacity:1"
         offset="0" />
      <stop
         id="stop4260"
         style="stop-color:#ffffff;stop-opacity:1"
         offset="0.08159336" />
      <stop
         id="stop4256"
         style="stop-color:#ffffff;stop-opacity:1"
         offset="1" />
    </linearGradient>
    <linearGradient
       id="linearGradient4200">
      <stop
         id="stop4202"
         style="stop-color:#ffffff;stop-opacity:1"
         offset="0" />
      <stop
         id="stop4204"
         style="stop-color:#ffffff;stop-opacity:0.68339771"
         offset="0.49095249" />
      <stop
         id="stop4206"
         style="stop-color:#ffffff;stop-opacity:0"
         offset="1" />
    </linearGradient>
    <linearGradient
       id="linearGradient3841">
      <stop
         id="stop3843"
         style="stop-color:#7272ff;stop-opacity:1"
         offset="0" />
      <stop
         id="stop4006"
         style="stop-color:#6364ff;stop-opacity:0.66023165"
         offset="0.77666676" />
      <stop
         id="stop3845"
         style="stop-color:#6c6cff;stop-opacity:0"
         offset="1" />
    </linearGradient>
    <linearGradient
       x1="432.08594"
       y1="-0.78694332"
       x2="432.08594"
       y2="268.23657"
       id="linearGradient3847"
       xlink:href="#linearGradient3841"
       gradientUnits="userSpaceOnUse"
       gradientTransform="matrix(0.99779263,0,0,1,1.4228784,1.4711639)" />
    <filter
       x="-0.15212034"
       y="-0.56831408"
       width="1.3042407"
       height="2.1366282"
       color-interpolation-filters="sRGB"
       id="filter3943">
      <feGaussianBlur
         id="feGaussianBlur3945"
         stdDeviation="27.05175" />
    </filter>
    <filter
       x="-0.029151982"
       y="-0.10891036"
       width="1.058304"
       height="1.2178206"
       color-interpolation-filters="sRGB"
       id="filter3994">
      <feGaussianBlur
         id="feGaussianBlur3996"
         stdDeviation="5.1841333" />
    </filter>
    <filter
       color-interpolation-filters="sRGB"
       id="filter4052">
      <feGaussianBlur
         id="feGaussianBlur4054"
         stdDeviation="14.344648" />
    </filter>
    <filter
       x="-0.050539244"
       y="-0.98961139"
       width="1.1010785"
       height="2.9792228"
       color-interpolation-filters="sRGB"
       id="filter4153">
      <feGaussianBlur
         id="feGaussianBlur4155"
         stdDeviation="8.8475919" />
    </filter>
    <filter
       x="-0.0791049"
       y="-1.548957"
       width="1.1582098"
       height="4.0979137"
       color-interpolation-filters="sRGB"
       id="filter4178">
      <feGaussianBlur
         id="feGaussianBlur4180"
         stdDeviation="13.848405" />
    </filter>
    <mask
       id="mask4240">
      <rect
         width="748.19763"
         height="972.052"
         x="-4.0334382"
         y="82.326805"
         id="rect4242"
         style="fill:#ffffff;fill-opacity:1;stroke:none" />
    </mask>
    <linearGradient
       x1="470.60706"
       y1="60.524979"
       x2="470.60706"
       y2="1048.6194"
       id="linearGradient4278"
       xlink:href="#linearGradient4266"
       gradientUnits="userSpaceOnUse" />
    <mask
       id="mask4274">
      <rect
         width="751.84637"
         height="997.46198"
         x="-3.7498572"
         y="56.77512"
         transform="matrix(0,1,-1,0,0,0)"
         id="rect4276"
         style="fill:url(#linearGradient4278);fill-opacity:1;stroke:none" />
    </mask>
    <linearGradient
       x1="421.44736"
       y1="244.03932"
       x2="421.44736"
       y2="67.856735"
       id="linearGradient4329"
       xlink:href="#linearGradient4323"
       gradientUnits="userSpaceOnUse"
       gradientTransform="matrix(1,0,0,1.3245614,0,-81.34302)" />
  </defs>
  <metadata
     id="metadata6">
    <rdf:RDF>
      <cc:Work
         rdf:about="">
        <dc:format>image/svg+xml</dc:format>
        <dc:type
           rdf:resource="http://purl.org/dc/dcmitype/StillImage" />
        <dc:title></dc:title>
      </cc:Work>
    </rdf:RDF>
  </metadata>
  <g
     id="layer1">
    <rect
       width="740.82544"
       height="248.58809"
       x="3.2925575"
       y="2.0363526"
       id="rect4321"
       style="fill:url(#linearGradient4329);fill-opacity:1;stroke:none" />
    <rect
       width="744.16541"
       height="273.79703"
       x="0"
       y="0"
       id="rect3839"
       style="fill:url(#linearGradient3847);fill-opacity:1;stroke:none" />
    <path
       d="m 105.33343,48.928781 -0.23506,-49.26609 -3.07792,0.58942 0.25053,50.52042 0,130.874999 -103.3749993,0 c 0,0 1.70198997,2.4106 2.3125,2.375 40.7531803,-2.37671 71.6283003,15.14119 76.9375003,18 l -48.65625,35.875 72.062499,-19.375 0.59375,163.28125 0.0937,722.18752 5.59375,-0.8125 -0.0625,-722.15627 -0.15625,-53.28125 c 1.3446,-78.70335 14.38706,-93.56328 15.28125,-95.1875 16.58295,12.50599 33.95418,25.4999 47.40625,34.875 -6.87755,-7.74149 -14.21603,-28.17978 -24.8125,-55.40625 -0.98846,-2.53974 -1.64349,-5.0507 -2.71875,-7.71875 17.96386,-7.42414 39.16922,-14.46587 78.75,-18.6875 l 196.3125,-0.59375 326.5625,-0.0313 1.09375,-3.625 -326.4375,-0.0313 -275.96875,0 c 7.66024,-18.59521 9.99195,-31.99683 32.40625,-53.8125 l -0.46875,-0.5937 -48.0625,37.96875 c -0.28027,-0.6875 -0.56284,-0.90182 -0.84375,-1.59375 -13.49606,-33.2428 -20.67403,-75.701429 -20.78125,-114.374999 z m 29.8125,73.999999 c -6.83938,0 -12.40625,5.56687 -12.40625,12.40625 0,6.83938 5.56687,12.375 12.40625,12.375 6.83938,0 12.375,-5.53562 12.375,-12.375 0,-6.83938 -5.53562,-12.40625 -12.375,-12.40625 z m -56.593749,22.03125 c -8.69699,0 -15.75,7.05301 -15.75,15.75 0,8.69699 7.05301,15.75 15.75,15.75 8.69699,0 15.75,-7.05301 15.75,-15.75 0,-8.69699 -7.05301,-15.75 -15.75,-15.75 z m -0.75,6.71875 c 5.06621,0 9.15625,4.37729 9.15625,9.78125 0,5.40396 -4.09004,9.78125 -9.15625,9.78125 -5.06621,0 -9.1875,-4.37729 -9.1875,-9.78125 0,-5.40396 4.12129,-9.78125 9.1875,-9.78125 z m 90.656249,4.28125 c -5.48839,0 -9.9375,4.59273 -9.9375,10.25 0,5.65727 4.44911,10.25 9.9375,10.25 5.48839,0 9.9375,-4.59273 9.9375,-10.25 0,-5.65727 -4.44911,-10.25 -9.9375,-10.25 z m -0.3125,0.90625 c 4.8129,0 8.71875,4.26492 8.71875,9.5 0,5.23508 -3.90585,9.46875 -8.71875,9.46875 -4.8129,0 -8.71875,-4.23367 -8.71875,-9.46875 0,-5.23508 3.90585,-9.5 8.71875,-9.5 z m -22.6875,1.625 c 0.91295,-0.0765 1.45074,0.7707 0.9375,2.03125 l -10.0625,21.03125 -2.8125,0 -4,-10.28125 14.90625,-12.375 c 0.36491,-0.24643 0.72693,-0.38076 1.03125,-0.40625 z m -20.34375,14 c 0.72794,-0.0576 0.90475,0.37505 1.28125,0.625 l 3.4375,8.4375 -17.03125,-0.21875 11.375,-8.59375 c 0.39519,-0.15266 0.69485,-0.23081 0.9375,-0.25 z m 12.78125,13.4375 c 10.61723,0.45695 21.52423,3.40995 32.28125,5.125 1.4497,0.78096 1.31637,2.29305 -0.0625,2.28125 l -33.84375,-4.21875 c -2.34994,-0.24289 -1.92412,-2.97959 1.625,-3.1875 z m -40.437499,1.0625 -14.15625,10.875 c -1.49947,0.67521 -2.41529,2.55632 -5.03125,0.8125 l -12.25,-7.5625 c -1.73485,-0.92027 -3.78176,-3.34388 1.84375,-3.59375 z m 15.593749,0.4375 c 2.53287,0.0226 5.2109,0.72751 7.875,1.40625 l 9.6875,0.21875 c 1.92816,0.32167 3.38411,0.8503 3.6875,1.78125 l 0.375,4.03125 c -1.76252,3.27887 -4.29089,9.591 -5.28125,9.78125 0.77876,0.46691 -9.45925,2.35005 -18.5,4.25 -0.33488,0.0703 -0.86211,0.0308 -1.15625,0.0937 l -0.21875,-0.5937 c 1.01719,-12.94387 0.22675,-11.5939 0.15625,-17.28125 -0.19497,-1.5229 -0.67802,-3.11905 2.28125,-3.65625 0.35582,-0.0269 0.73191,-0.0343 1.09375,-0.0313 z m 23.71875,12.71875 c 0.86548,0 1.5625,0.69702 1.5625,1.5625 0,0.86548 -0.69702,1.5625 -1.5625,1.5625 -0.86548,0 -1.5625,-0.69702 -1.5625,-1.5625 0,-0.86548 0.69702,-1.5625 1.5625,-1.5625 z m -53.187499,1.6875 c 0.17051,-0.0247 0.36229,-0.0198 0.5625,0 l 22.249999,15.21875 c 0.20663,0.7877 -0.38547,1.82572 -2.6875,0.96875 L 82.302181,204.11628 c -0.37377,-0.93788 0.0877,-2.10854 1.28125,-2.28125 z m 90.999999,1.53125 c -8.19037,0 -14.84375,6.62213 -14.84375,14.8125 0,8.19037 6.65338,14.84375 14.84375,14.84375 8.19037,0 14.8125,-6.65338 14.8125,-14.84375 0,-8.19037 -6.62213,-14.8125 -14.8125,-14.8125 z m -40.9375,3.9375 c 1.24994,0.01 2.39665,1.20896 1.59375,3.9375 l -7.5625,19.5 c -0.79867,1.34551 -1.44687,2.688 -3.125,1.09375 -0.49826,-1.08889 -0.66408,-2.32368 -0.15625,-3.84375 2.38907,-7.81045 4.70963,-15.95303 7.65625,-20 0.43629,-0.44511 1.02559,-0.69206 1.59375,-0.6875 z m -9.75,2.625 c 0.69722,0.0128 1.3537,0.1184 1.625,1.125 -1.37685,4.68182 -2.49639,9.479 -4.96875,13.75 -0.60129,0.5602 -1.14895,0.66484 -1.625,0.21875 -3.60298,-2.17151 -7.23705,-4.31519 -9.71875,-7.1875 -1.1479,-1.27152 -0.81714,-2.05015 0.0313,-2.65625 l 2.59375,-0.96875 12.0625,-4.28125 z m -13.5625,14.6875 c 0.32796,0.002 0.68347,0.0989 1.09375,0.3125 l 7.03125,4.65625 -8.25,29.5625 c -0.18557,1.09956 -0.6262,1.43388 -1.21875,1.3125 -0.42324,-0.87068 -1.09786,-1.00352 -1.15625,-2.96875 l 1,-31.125 c -0.0707,-0.9395 0.51613,-1.75523 1.5,-1.75 z m -28.718749,4.4375 c -8.02149,0 -14.53125,6.4785 -14.53125,14.5 0,8.0215 6.50976,14.53125 14.53125,14.53125 8.0215,0 14.53125,-6.50975 14.53125,-14.53125 0,-8.0215 -6.50975,-14.5 -14.53125,-14.5 z m 49.249999,18.34375 c -5.82614,0 -10.5625,4.84874 -10.5625,10.84375 0,5.99501 4.73636,10.84375 10.5625,10.84375 5.82614,0 10.53125,-4.84874 10.53125,-10.84375 0,-5.99501 -4.70511,-10.84375 -10.53125,-10.84375 z m 0,2.125 c 4.47515,0 8.09375,3.6186 8.09375,8.09375 0,4.47515 -3.6186,8.125 -8.09375,8.125 -4.47515,0 -8.125,-3.64985 -8.125,-8.125 0,-4.47515 3.64985,-8.09375 8.125,-8.09375 z"
       id="path2995-2"
       style="fill:#ffffff;fill-opacity:1;stroke:none;filter:url(#filter4052)" />
    <path
       d="m 105.8125,48.9375 -0.23506,-49.26608679 -3.07792,0.58941574 0.25053,50.52042105 0,130.875 -103.375,0 c 0,0 1.7019919,2.4106 2.3125,2.375 40.75318,-2.37671 71.628293,15.14119 76.9375,18 l -48.65625,35.875 72.0625,-19.375 0.59375,163.28125 0.0937,670.8216 5.59375,0.4222 L 108.25,381.03125 108.09375,327.75 c 1.3446,-78.70335 14.38706,-93.56328 15.28125,-95.1875 16.58295,12.50599 33.95418,25.4999 47.40625,34.875 -6.87755,-7.74149 -14.21603,-28.17978 -24.8125,-55.40625 -0.98846,-2.53974 -1.64349,-5.0507 -2.71875,-7.71875 17.96386,-7.42414 39.16922,-14.46587 78.75,-18.6875 L 418.3125,185.03125 744.875,185 l -0.14096,-3.625 -325.20279,-0.0313 -275.96875,0 c 7.66024,-18.59521 9.99195,-31.99683 32.40625,-53.8125 L 175.5,126.9375 127.4375,164.90625 c -0.28027,-0.6875 -0.56284,-0.90182 -0.84375,-1.59375 C 113.09769,130.0697 105.91972,87.611067 105.8125,48.9375 z m 29.8125,74 c -6.83938,0 -12.40625,5.56687 -12.40625,12.40625 0,6.83938 5.56687,12.375 12.40625,12.375 6.83938,0 12.375,-5.53562 12.375,-12.375 0,-6.83938 -5.53562,-12.40625 -12.375,-12.40625 z m -56.59375,22.03125 c -8.696991,0 -15.75,7.05301 -15.75,15.75 0,8.69699 7.053009,15.75 15.75,15.75 8.696991,0 15.75,-7.05301 15.75,-15.75 0,-8.69699 -7.053009,-15.75 -15.75,-15.75 z m -0.75,6.71875 c 5.066208,0 9.15625,4.37729 9.15625,9.78125 0,5.40396 -4.090042,9.78125 -9.15625,9.78125 -5.066208,0 -9.1875,-4.37729 -9.1875,-9.78125 0,-5.40396 4.121292,-9.78125 9.1875,-9.78125 z m 90.65625,4.28125 c -5.48839,0 -9.9375,4.59273 -9.9375,10.25 0,5.65727 4.44911,10.25 9.9375,10.25 5.48839,0 9.9375,-4.59273 9.9375,-10.25 0,-5.65727 -4.44911,-10.25 -9.9375,-10.25 z m -0.3125,0.90625 c 4.8129,0 8.71875,4.26492 8.71875,9.5 0,5.23508 -3.90585,9.46875 -8.71875,9.46875 -4.8129,0 -8.71875,-4.23367 -8.71875,-9.46875 0,-5.23508 3.90585,-9.5 8.71875,-9.5 z m -22.6875,1.625 c 0.91295,-0.0765 1.45074,0.7707 0.9375,2.03125 l -10.0625,21.03125 -2.8125,0 -4,-10.28125 14.90625,-12.375 c 0.36491,-0.24643 0.72693,-0.38076 1.03125,-0.40625 z m -20.34375,14 c 0.72794,-0.0576 0.90475,0.37505 1.28125,0.625 l 3.4375,8.4375 -17.03125,-0.21875 11.375,-8.59375 c 0.39519,-0.15266 0.69485,-0.23081 0.9375,-0.25 z m 12.78125,13.4375 c 10.61723,0.45695 21.52423,3.40995 32.28125,5.125 1.4497,0.78096 1.31637,2.29305 -0.0625,2.28125 L 136.75,189.125 c -2.34994,-0.24289 -1.92412,-2.97959 1.625,-3.1875 z M 97.9375,187 83.78125,197.875 c -1.499477,0.67521 -2.415293,2.55632 -5.03125,0.8125 L 66.5,191.125 c -1.734852,-0.92027 -3.781759,-3.34388 1.84375,-3.59375 z m 15.59375,0.4375 c 2.53287,0.0226 5.2109,0.72751 7.875,1.40625 l 9.6875,0.21875 c 1.92816,0.32167 3.38411,0.8503 3.6875,1.78125 l 0.375,4.03125 c -1.76252,3.27887 -4.29089,9.591 -5.28125,9.78125 0.77876,0.46691 -9.45925,2.35005 -18.5,4.25 -0.33488,0.0703 -0.86211,0.0308 -1.15625,0.0937 L 110,208.40625 c 1.01719,-12.94387 0.22675,-11.5939 0.15625,-17.28125 -0.19497,-1.5229 -0.67802,-3.11905 2.28125,-3.65625 0.35582,-0.0269 0.73191,-0.0343 1.09375,-0.0313 z M 137.25,200.15625 c 0.86548,0 1.5625,0.69702 1.5625,1.5625 0,0.86548 -0.69702,1.5625 -1.5625,1.5625 -0.86548,0 -1.5625,-0.69702 -1.5625,-1.5625 0,-0.86548 0.69702,-1.5625 1.5625,-1.5625 z m -53.1875,1.6875 c 0.170506,-0.0247 0.362283,-0.0198 0.5625,0 l 22.25,15.21875 c 0.20663,0.7877 -0.38547,1.82572 -2.6875,0.96875 L 82.78125,204.125 c -0.373771,-0.93788 0.08771,-2.10854 1.28125,-2.28125 z m 91,1.53125 c -8.19037,0 -14.84375,6.62213 -14.84375,14.8125 0,8.19037 6.65338,14.84375 14.84375,14.84375 8.19037,0 14.8125,-6.65338 14.8125,-14.84375 0,-8.19037 -6.62213,-14.8125 -14.8125,-14.8125 z m -40.9375,3.9375 c 1.24994,0.01 2.39665,1.20896 1.59375,3.9375 l -7.5625,19.5 c -0.79867,1.34551 -1.44687,2.688 -3.125,1.09375 -0.49826,-1.08889 -0.66408,-2.32368 -0.15625,-3.84375 2.38907,-7.81045 4.70963,-15.95303 7.65625,-20 0.43629,-0.44511 1.02559,-0.69206 1.59375,-0.6875 z m -9.75,2.625 c 0.69722,0.0128 1.3537,0.1184 1.625,1.125 -1.37685,4.68182 -2.49639,9.479 -4.96875,13.75 -0.60129,0.5602 -1.14895,0.66484 -1.625,0.21875 -3.60298,-2.17151 -7.23705,-4.31519 -9.71875,-7.1875 -1.1479,-1.27152 -0.81714,-2.05015 0.0313,-2.65625 l 2.59375,-0.96875 12.0625,-4.28125 z m -13.5625,14.6875 c 0.32796,0.002 0.68347,0.0989 1.09375,0.3125 l 7.03125,4.65625 -8.25,29.5625 c -0.18557,1.09956 -0.6262,1.43388 -1.21875,1.3125 -0.42324,-0.87068 -1.09786,-1.00352 -1.15625,-2.96875 l 1,-31.125 c -0.0707,-0.9395 0.51613,-1.75523 1.5,-1.75 z m -28.71875,4.4375 c -8.021497,0 -14.53125,6.4785 -14.53125,14.5 0,8.0215 6.509753,14.53125 14.53125,14.53125 8.021497,0 14.53125,-6.50975 14.53125,-14.53125 0,-8.0215 -6.509753,-14.5 -14.53125,-14.5 z m 49.25,18.34375 c -5.82614,0 -10.5625,4.84874 -10.5625,10.84375 0,5.99501 4.73636,10.84375 10.5625,10.84375 5.82614,0 10.53125,-4.84874 10.53125,-10.84375 0,-5.99501 -4.70511,-10.84375 -10.53125,-10.84375 z m 0,2.125 c 4.47515,0 8.09375,3.6186 8.09375,8.09375 0,4.47515 -3.6186,8.125 -8.09375,8.125 -4.47515,0 -8.125,-3.64985 -8.125,-8.125 0,-4.47515 3.64985,-8.09375 8.125,-8.09375 z"
       id="path2995"
       style="fill:#5555ff;fill-opacity:1;stroke:none" />
    <text
       x="235.2408"
       y="156.47948"
       id="text3832-9-3"
       xml:space="preserve"
       style="font-size:40px;font-style:normal;font-weight:normal;line-height:125%;letter-spacing:0px;word-spacing:0px;fill:#ffffff;fill-opacity:1;stroke:none;filter:url(#filter3994);font-family:Sans"><tspan
         x="235.2408"
         y="156.47948"
         id="tspan3834-8-2"
         style="font-size:120px;font-style:normal;font-variant:normal;font-weight:500;font-stretch:normal;fill:#ffffff;fill-opacity:1;font-family:Ubuntu;-inkscape-font-specification:Ubuntu Medium">JihoČAS</tspan></text>
    <text
       x="235.2408"
       y="156.47948"
       id="text3832"
       xml:space="preserve"
       style="font-size:40px;font-style:normal;font-weight:normal;line-height:125%;letter-spacing:0px;word-spacing:0px;fill:#000000;fill-opacity:1;stroke:none;font-family:Sans"><tspan
         x="235.2408"
         y="156.47948"
         id="tspan3834"
         style="font-size:120px;font-style:normal;font-variant:normal;font-weight:500;font-stretch:normal;font-family:Ubuntu;-inkscape-font-specification:Ubuntu Medium">JihoČAS</tspan></text>
    <text
       x="235.2408"
       y="156.47948"
       id="text3832-9"
       xml:space="preserve"
       style="font-size:40px;font-style:normal;font-weight:normal;line-height:125%;letter-spacing:0px;word-spacing:0px;fill:#ffffff;fill-opacity:1;stroke:none;filter:url(#filter3943);font-family:Sans"><tspan
         x="235.2408"
         y="156.47948"
         id="tspan3834-8"
         style="font-size:120px;font-style:normal;font-variant:normal;font-weight:500;font-stretch:normal;fill:#ffffff;fill-opacity:1;font-family:Ubuntu;-inkscape-font-specification:Ubuntu Medium">JihoČAS</tspan></text>
    <text
       x="237.50972"
       y="207.7852"
       id="text4008-0"
       xml:space="preserve"
       style="font-size:19.20960617px;font-style:normal;font-weight:normal;line-height:125%;letter-spacing:0px;word-spacing:0px;fill:#ffffff;fill-opacity:1;stroke:none;filter:url(#filter4153);font-family:Sans"><tspan
         x="237.50972"
         y="207.7852"
         id="tspan4010-9"
         style="font-style:normal;font-variant:normal;font-weight:normal;font-stretch:normal;fill:#ffffff;fill-opacity:1;font-family:Ubuntu;-inkscape-font-specification:Ubuntu">Nepravidelný zpravodaj Jihočeské pobočky Č.A.S</tspan></text>
    <text
       x="237.50972"
       y="207.7852"
       id="text4008"
       xml:space="preserve"
       style="font-size:19.20960617px;font-style:normal;font-weight:normal;line-height:125%;letter-spacing:0px;word-spacing:0px;fill:#000000;fill-opacity:1;stroke:none;font-family:Sans"><tspan
         x="237.50972"
         y="207.7852"
         id="tspan4010"
         style="font-style:normal;font-variant:normal;font-weight:normal;font-stretch:normal;font-family:Ubuntu;-inkscape-font-specification:Ubuntu">Nepravidelný zpravodaj Jihočeské pobočky Č.A.S</tspan></text>
    <text
       x="237.50972"
       y="207.7852"
       id="text4008-4"
       xml:space="preserve"
       style="font-size:19.20960617px;font-style:normal;font-weight:normal;line-height:125%;letter-spacing:0px;word-spacing:0px;fill:#ffffff;fill-opacity:1;stroke:none;filter:url(#filter4178);font-family:Sans"><tspan
         x="237.50972"
         y="207.7852"
         id="tspan4010-92"
         style="font-style:normal;font-variant:normal;font-weight:normal;font-stretch:normal;fill:#ffffff;fill-opacity:1;font-family:Ubuntu;-inkscape-font-specification:Ubuntu">Nepravidelný zpravodaj Jihočeské pobočky Č.A.S</tspan></text>
    <text
       x="10.866912"
       y="-52.532444"
       transform="matrix(0,1,-1,0,0,0)"
       id="text4244"
       xml:space="preserve"
       style="font-size:40px;font-style:normal;font-weight:normal;line-height:125%;letter-spacing:0px;word-spacing:0px;fill:#000000;fill-opacity:1;stroke:none;font-family:Sans"><tspan
         x="10.866912"
         y="-52.532444"
         id="tspan4246"
         style="font-size:30px;font-style:normal;font-variant:normal;font-weight:normal;font-stretch:normal;font-family:Ubuntu;-inkscape-font-specification:Ubuntu">číslo 1/14</tspan><tspan
         x="10.866912"
         y="-15.032444"
         id="tspan4248"
         style="font-size:30px;font-style:normal;font-variant:normal;font-weight:normal;font-stretch:normal;font-family:Ubuntu;-inkscape-font-specification:Ubuntu">Ročník 022</tspan></text>
  </g>
</svg>
